<?xml version="1.0" encoding="UTF-8"?>
<svg id="_레이어_2" data-name="레이어 2" xmlns="http://www.w3.org/2000/svg" viewBox="0 0 48.27 17.25">
  <defs>
    <style>
      .cls-1 {
        fill: #0e341b;
      }

      .cls-2 {
        fill: #f2f3f3;
      }
    </style>
  </defs>
  <g id="_레이어_2-2" data-name=" 레이어 2">
    <g>
      <rect class="cls-1" width="48.27" height="17.25"/>
      <g>
        <path class="cls-2" d="M9.95,8.81c-.27-.18-.55-.32-.84-.43-.29-.1-.55-.19-.79-.25l-.8-.23c-.14-.05-.3-.1-.47-.16s-.33-.13-.49-.22c-.16-.09-.28-.21-.38-.34-.1-.14-.14-.31-.14-.52,0-.39.13-.7.4-.92.27-.22.68-.33,1.24-.33s.94.1,1.22.29c.28.19.43.49.47.89h1.31c0-.46-.13-.86-.37-1.21s-.57-.62-1.01-.82c-.44-.2-.97-.29-1.59-.29-.58,0-1.09.1-1.55.29-.46.19-.81.47-1.06.82-.25.36-.38.79-.38,1.31,0,.59.2,1.07.61,1.43.4.36.96.64,1.66.84l1.01.29c.28.08.53.17.76.26s.41.21.55.37.2.36.2.61c0,.46-.16.8-.48,1.04-.32.24-.78.36-1.38.36-.35,0-.66-.04-.92-.13-.26-.08-.47-.22-.62-.41-.15-.19-.24-.44-.27-.76h-1.34c.05.75.33,1.35.86,1.78.52.44,1.29.65,2.3.65.71,0,1.3-.11,1.78-.32s.83-.51,1.06-.88c.24-.38.35-.82.35-1.32,0-.41-.08-.75-.25-1.03-.17-.28-.39-.5-.65-.68Z"/>
        <polygon class="cls-2" points="18.57 4.4 16.95 4.4 13.54 8.52 13.54 4.4 12.2 4.4 12.2 12.88 13.54 12.88 13.54 10.28 14.56 9.09 17.13 12.88 18.73 12.88 15.45 8.05 18.57 4.4"/>
        <polygon class="cls-2" points="26.26 4.4 24.64 4.4 21.23 8.52 21.23 4.4 19.89 4.4 19.89 12.88 21.23 12.88 21.23 10.28 22.25 9.09 24.82 12.88 26.42 12.88 23.14 8.05 26.26 4.4"/>
        <rect class="cls-2" x="27.52" y="5.97" width="1.54" height="1.54"/>
        <rect class="cls-2" x="27.52" y="10.76" width="1.54" height="1.52"/>
        <path class="cls-2" d="M33.35,4.4l-3.14,8.48h1.32l.79-2.2h3.4l.78,2.2h1.39l-3.16-8.48h-1.38ZM32.73,9.53l1.27-3.54h.05l1.26,3.54h-2.58Z"/>
        <polygon class="cls-2" points="42.62 5.52 42.62 4.4 41.38 4.4 40.04 4.4 38.78 4.4 38.78 5.52 40.04 5.52 40.04 11.75 38.78 11.75 38.78 12.88 40.04 12.88 41.38 12.88 42.62 12.88 42.62 11.75 41.38 11.75 41.38 5.52 42.62 5.52"/>
      </g>
    </g>
  </g>
</svg>